<?xml version="1.0" encoding="utf-8"?>
<!-- Generator: Adobe Illustrator 17.0.0, SVG Export Plug-In . SVG Version: 6.00 Build 0)  -->
<!DOCTYPE svg PUBLIC "-//W3C//DTD SVG 1.1//EN" "http://www.w3.org/Graphics/SVG/1.1/DTD/svg11.dtd">
<svg version="1.1" id="Capa_1" xmlns="http://www.w3.org/2000/svg" xmlns:xlink="http://www.w3.org/1999/xlink" x="0px" y="0px"
	 width="235.685px" height="71.5px" viewBox="0 -17.5 235.685 71.5" enable-background="new 0 -17.5 235.685 71.5"
	 xml:space="preserve">
<title>Logo Combo 3</title>
<desc>Created with Sketch.</desc>
<g>
	<g>
		<g>
			<g>
				<path fill="#B7B7B8" d="M43.094,27.635l-2.006-2.029c-1.562,1.28-3.253,1.92-5.073,1.92c-1.683,0-3.073-0.455-4.168-1.365
					c-1.095-0.911-1.643-2.118-1.643-3.624v-0.048c0-2.15,1.119-3.737,3.357-4.76c-0.805-1.128-1.207-2.279-1.207-3.455v-0.048
					c0-0.596,0.118-1.168,0.356-1.716c0.237-0.548,0.574-1.033,1.008-1.456c0.434-0.423,0.989-0.76,1.661-1.008
					c0.673-0.25,1.411-0.375,2.217-0.375c1.45,0,2.622,0.415,3.521,1.245c0.898,0.83,1.346,1.865,1.346,3.105v0.048
					c0,2.07-1.212,3.58-3.636,4.531l2.308,2.308c0.548-0.862,1.107-1.852,1.679-2.972l2.802,1.534
					c-0.846,1.539-1.607,2.759-2.283,3.661l2.55,2.55L43.094,27.635z M36.462,24.408c0.821,0,1.655-0.327,2.5-0.978l-3.322-3.37
					c-1.071,0.555-1.607,1.313-1.607,2.271v0.048c0,0.605,0.228,1.093,0.683,1.467C35.171,24.221,35.753,24.408,36.462,24.408z
					 M36.86,16.593c0.79-0.298,1.37-0.624,1.741-0.978c0.369-0.354,0.555-0.794,0.555-1.316V14.25c0-0.492-0.15-0.882-0.447-1.172
					c-0.298-0.29-0.693-0.434-1.184-0.434c-0.507,0-0.914,0.161-1.22,0.484c-0.306,0.323-0.459,0.745-0.459,1.268v0.048
					c0,0.371,0.077,0.717,0.23,1.039C36.228,15.803,36.491,16.174,36.86,16.593z"/>
				<path fill="#1D3E88" d="M38.439-15.643c-14.359,0-26.675,8.729-31.924,21.163h5.35c4.922-9.696,14.99-16.345,26.619-16.345
					c16.479,0,29.839,13.343,29.839,29.802c0,2.358-0.282,4.648-0.803,6.848h-3.836c0-0.001,0.001-0.001,0.001-0.003h-9.073
					c-0.072,0.003-0.142,0.007-0.215,0.007c-0.072,0-0.14-0.005-0.211-0.007h-0.075V25.82c-1.121-0.044-2.141-0.346-3.06-0.913
					c-0.995-0.615-1.767-1.437-2.314-2.468c-0.548-1.03-0.821-2.155-0.821-3.376v-0.06c0-1.22,0.269-2.34,0.807-3.36
					c0.537-1.02,1.3-1.83,2.284-2.43c0.986-0.6,2.096-0.9,3.33-0.9c1.872,0,3.423,0.658,4.652,1.972
					c1.229,1.315,1.845,2.907,1.845,4.778v0.06c0,1.22-0.269,2.34-0.807,3.36c-0.411,0.779-0.956,1.435-1.63,1.972h6.171
					c0.19-0.343,0.368-0.696,0.527-1.067c0.589-1.387,0.883-2.846,0.883-4.38v-0.061c0-2.051-0.493-3.934-1.478-5.646
					c-0.986-1.712-2.368-3.07-4.144-4.076c-1.778-1.006-3.763-1.509-5.958-1.509c-1.646,0-3.195,0.297-4.647,0.891
					c-1.453,0.594-2.686,1.4-3.703,2.416c-1.016,1.016-1.816,2.217-2.4,3.603c-0.319,0.757-0.548,1.538-0.692,2.339l0.3,0.164
					l2.802,1.534l0.803,0.44l-0.441,0.803c-0.676,1.231-1.31,2.276-1.89,3.122l2.001,2.001l0.77,0.77l-0.891,0.624l-0.575,0.403
					c0.062,0.066,0.118,0.138,0.182,0.203c1.006,1.011,2.232,1.811,3.68,2.4c1.421,0.578,2.936,0.87,4.546,0.882v0.009h11.836
					c0,0.001-0.001,0.003-0.001,0.003h5.067c1.242-3.564,1.927-7.389,1.927-11.376C73.071-0.157,57.565-15.643,38.439-15.643z"/>
				<g>
					<path fill="#37A6DE" d="M65.131,32.385c-4.913,9.724-14.997,16.396-26.646,16.396c-16.479,0-29.839-13.343-29.839-29.802
						c0-2.379,0.287-4.69,0.816-6.906h3.782l0,0h8.034c0.001,0,0.003,0,0.004-0.001h0.614v-0.07
						c0.139-0.009,0.278-0.021,0.421-0.021c1.189,0,2.208,0.178,3.056,0.533c0.848,0.356,1.734,0.914,2.659,1.675l3.017-3.657
						c-1.208-1.016-2.468-1.768-3.779-2.256c-1.31-0.488-2.91-0.731-4.8-0.731c-0.274,0-0.545,0.012-0.814,0.029H6.604L6.601,7.578
						h-0.87C4.49,11.14,3.807,14.963,3.807,18.949c0,19.105,15.505,34.593,34.632,34.593c14.356,0,26.671-8.726,31.923-21.157
						H65.131z"/>
					<path fill="#37A6DE" d="M31.837,17.673v-0.48h-9.492v4.144h4.83v3.123c-1.229,0.874-2.737,1.31-4.526,1.31
						c-1.93,0-3.515-0.656-4.755-1.966c-1.24-1.31-1.859-2.966-1.859-4.967v-0.061c0-1.869,0.613-3.469,1.837-4.8
						c0.18-0.195,0.367-0.372,0.558-0.539h-6.048c-0.177,0.328-0.343,0.665-0.492,1.017c-0.579,1.387-0.868,2.848-0.868,4.381v0.061
						c0,1.595,0.282,3.086,0.846,4.472s1.344,2.577,2.339,3.573c0.995,0.995,2.206,1.778,3.635,2.347
						c1.427,0.568,2.979,0.853,4.654,0.853c3.334,0,6.314-1.051,8.941-3.148c-0.057-0.044-0.118-0.085-0.176-0.131
						c-1.309-1.087-1.972-2.544-1.972-4.328v-0.048C29.29,20.481,30.171,18.843,31.837,17.673z"/>
				</g>
			</g>
		</g>
		<g>
			<g>
				<path fill="#1D3E88" d="M89.483,20.831c0.328,0,0.524,0.196,0.524,0.526v25.206c0,0.328-0.196,0.524-0.524,0.524h-3.413
					c-0.36,0-0.526-0.196-0.526-0.524V21.357c0-0.328,0.164-0.526,0.526-0.526H89.483z"/>
				<path fill="#1D3E88" d="M105.959,20.831c0.328,0,0.526,0.196,0.526,0.526v25.206c0,0.328-0.196,0.524-0.526,0.524h-3.249
					c-0.295,0-0.492-0.131-0.591-0.427l-5.021-14.015h-0.164v13.916c0,0.328-0.164,0.524-0.524,0.524h-3.413
					c-0.328,0-0.526-0.196-0.526-0.524V21.357c0-0.328,0.196-0.526,0.526-0.526h3.249c0.295,0,0.492,0.131,0.591,0.427l4.989,13.949
					h0.196v-13.85c0-0.328,0.164-0.526,0.524-0.526H105.959z"/>
				<path fill="#1D3E88" d="M108.947,21.357c0-0.328,0.164-0.526,0.526-0.526h7.877c3.086,0,4.726,1.674,4.726,4.76v16.772
					c0,3.086-1.64,4.726-4.726,4.726h-7.877c-0.36,0-0.526-0.164-0.526-0.524V21.357z M116.431,42.755
					c0.853,0,1.313-0.427,1.313-1.313V26.509c0-0.886-0.459-1.345-1.313-1.345h-3.019v17.591H116.431z"/>
				<path fill="#1D3E88" d="M137.011,20.831c0.36,0,0.656,0.295,0.656,0.656v20.875c0,3.086-1.642,4.726-4.726,4.726h-3.676
					c-3.086,0-4.726-1.64-4.726-4.726V21.487c0-0.36,0.295-0.656,0.657-0.656h3.151c0.36,0,0.656,0.295,0.656,0.656v19.955
					c0,0.886,0.459,1.313,1.313,1.313h1.707c0.853,0,1.313-0.427,1.313-1.313V21.487c0-0.36,0.295-0.656,0.656-0.656H137.011z"/>
				<path fill="#1D3E88" d="M148.533,20.831c3.086,0,4.726,1.64,4.726,4.726v3.478c0,0.328-0.164,0.526-0.526,0.526h-3.413
					c-0.328,0-0.526-0.196-0.526-0.526v-2.56c0-0.853-0.427-1.313-1.313-1.313h-1.575c-0.821,0-1.313,0.459-1.313,1.313v4.53
					l7.812,2.56c0.558,0.229,0.853,0.591,0.853,1.214v7.583c0,3.086-1.642,4.726-4.726,4.726h-3.676
					c-3.053,0-4.726-1.64-4.726-4.726v-3.447c0-0.36,0.196-0.524,0.526-0.524h3.413c0.36,0,0.524,0.164,0.524,0.524v2.528
					c0,0.886,0.492,1.313,1.313,1.313h1.575c0.853,0,1.313-0.427,1.313-1.313v-4.366l-7.779-2.56
					c-0.591-0.196-0.886-0.591-0.886-1.214v-7.745c0-3.086,1.674-4.726,4.726-4.726H148.533z"/>
				<path fill="#1D3E88" d="M167.013,20.831c0.36,0,0.526,0.196,0.526,0.526v3.282c0,0.328-0.164,0.526-0.526,0.526h-3.808v21.4
					c0,0.36-0.164,0.524-0.526,0.524h-3.413c-0.328,0-0.524-0.164-0.524-0.524V25.163h-3.808c-0.328,0-0.526-0.196-0.526-0.526
					v-3.281c0-0.328,0.196-0.526,0.526-0.526H167.013z"/>
				<path fill="#1D3E88" d="M182.835,33.565c0,2.198-0.821,3.644-2.396,4.333l2.265,8.6c0.099,0.394-0.099,0.591-0.459,0.591h-3.413
					c-0.328,0-0.492-0.164-0.558-0.459l-2.198-8.337h-2.265v8.272c0,0.328-0.196,0.524-0.524,0.524h-3.413
					c-0.328,0-0.526-0.196-0.526-0.524V21.357c0-0.328,0.196-0.526,0.526-0.526h8.238c3.086,0,4.726,1.64,4.726,4.726v8.008H182.835
					z M177.058,33.959c0.853,0,1.313-0.459,1.313-1.313v-6.17c0-0.853-0.459-1.313-1.313-1.313h-3.249v8.796h3.249V33.959z"/>
				<path fill="#1D3E88" d="M189.236,20.831c0.328,0,0.524,0.196,0.524,0.526v25.206c0,0.328-0.196,0.524-0.524,0.524h-3.413
					c-0.36,0-0.526-0.196-0.526-0.524V21.357c0-0.328,0.164-0.526,0.526-0.526H189.236z"/>
				<path fill="#1D3E88" d="M204.564,47.089c-0.295,0-0.459-0.164-0.526-0.459l-0.918-4.792h-5.842l-0.886,4.792
					c-0.065,0.295-0.229,0.459-0.526,0.459h-3.512c-0.36,0-0.524-0.196-0.427-0.558l5.448-25.239
					c0.065-0.328,0.263-0.459,0.558-0.459h4.562c0.295,0,0.492,0.131,0.558,0.459l5.448,25.239c0.065,0.36-0.065,0.558-0.459,0.558
					C208.042,47.089,204.564,47.089,204.564,47.089z M200.198,26.574l-2.101,11.455h4.202L200.198,26.574z"/>
				<path fill="#1D3E88" d="M215.101,42.755h5.884c0.36,0,0.524,0.196,0.524,0.526v3.282c0,0.36-0.164,0.524-0.524,0.524h-9.823
					c-0.328,0-0.526-0.164-0.526-0.524V21.357c0-0.328,0.196-0.526,0.526-0.526h3.413c0.36,0,0.524,0.196,0.524,0.526v21.399
					H215.101z"/>
			</g>
			<g>
				<path fill="#37A6DE" d="M89.379-2.724h-4.502v-3.166h12.21v3.166h-4.54v18.199H89.38V-2.724H89.379z"/>
				<path fill="#37A6DE" d="M99.563-5.891h10.682v3.166h-7.516v5.951h6.905v3.166h-6.905v5.914h7.516v3.166H99.563V-5.891z"/>
				<path fill="#37A6DE" d="M125.122,9.676c0,3.357-2.747,6.105-6.105,6.105s-6.105-2.747-6.105-6.105V-0.09
					c0-3.357,2.746-6.105,6.105-6.105c3.357,0,6.105,2.747,6.105,6.105v0.304h-3.166V-0.09c0-1.64-1.297-2.937-2.937-2.937
					s-2.937,1.297-2.937,2.937v9.767c0,1.64,1.297,2.937,2.937,2.937s2.937-1.297,2.937-2.937V9.371h3.166V9.676z"/>
				<path fill="#37A6DE" d="M128.172-0.091c0-3.357,2.747-6.105,6.105-6.105s6.105,2.747,6.105,6.105v15.566h-3.166V-0.091
					c0-1.64-1.297-2.937-2.937-2.937c-1.64,0-2.937,1.297-2.937,2.937v15.566h-3.166V-0.091H128.172z"/>
				<path fill="#37A6DE" d="M143.812,9.676V-0.09c0-3.357,2.746-6.105,6.105-6.105c3.357,0,6.105,2.747,6.105,6.105v9.767
					c0,3.357-2.747,6.105-6.105,6.105C146.558,15.78,143.812,13.034,143.812,9.676z M152.854,9.676V-0.09
					c0-1.64-1.297-2.937-2.937-2.937s-2.937,1.297-2.937,2.937v9.767c0,1.64,1.297,2.937,2.937,2.937
					C151.557,12.614,152.854,11.317,152.854,9.676z"/>
				<path fill="#37A6DE" d="M159.451-5.891h3.166v18.199h7.516v3.166h-10.682V-5.891z"/>
				<path fill="#37A6DE" d="M171.125,9.676V-0.09c0-3.357,2.746-6.105,6.105-6.105c3.357,0,6.105,2.747,6.105,6.105v9.767
					c0,3.357-2.747,6.105-6.105,6.105C173.871,15.78,171.125,13.034,171.125,9.676z M180.167,9.676V-0.09
					c0-1.64-1.297-2.937-2.937-2.937c-1.64,0-2.937,1.297-2.937,2.937v9.767c0,1.64,1.297,2.937,2.937,2.937
					C178.87,12.614,180.167,11.317,180.167,9.676z"/>
				<path fill="#37A6DE" d="M186.763,9.676V-0.09c0-3.357,2.746-6.105,6.105-6.105c3.357,0,6.105,2.747,6.105,6.105v0.304h-3.166
					V-0.09c0-1.64-1.297-2.937-2.937-2.937c-1.64,0-2.937,1.297-2.937,2.937v9.767c0,1.64,1.297,2.937,2.937,2.937
					c1.64,0,2.937-1.297,2.937-2.937V6.396h-2.937V3.23h6.105v6.448c0,3.357-2.747,6.105-6.105,6.105
					C189.511,15.78,186.763,13.034,186.763,9.676z"/>
				<path fill="#37A6DE" d="M204.132-11.006h3.168l-2.11,3.208h-3.166L204.132-11.006z M202.403-5.891h3.166v21.365h-3.166V-5.891z"
					/>
				<path fill="#37A6DE" d="M209.002-0.091c0-3.357,2.747-6.105,6.105-6.105s6.105,2.747,6.105,6.105v15.566h-3.166v-9.08h-5.876
					v9.08h-3.166V-0.091H209.002z M218.044,3.228v-3.32c0-1.64-1.297-2.937-2.937-2.937c-1.64,0-2.937,1.297-2.937,2.937v3.32
					H218.044z"/>
			</g>
		</g>
	</g>
</g>
</svg>
