<?xml version="1.0" encoding="utf-8"?>
<!-- Generator: Adobe Illustrator 17.0.0, SVG Export Plug-In . SVG Version: 6.00 Build 0)  -->
<!DOCTYPE svg PUBLIC "-//W3C//DTD SVG 1.1//EN" "http://www.w3.org/Graphics/SVG/1.1/DTD/svg11.dtd">
<svg version="1.1" id="Capa_1" xmlns="http://www.w3.org/2000/svg" xmlns:xlink="http://www.w3.org/1999/xlink" x="0px" y="0px"
	 width="189px" height="59.5px" viewBox="-62.667 -6.5 189 59.5" enable-background="new -62.667 -6.5 189 59.5"
	 xml:space="preserve">
<title>Logo Medium</title>
<desc>Created with Sketch.</desc>
<g>
	<g>
		<g>
			<g>
				<path fill="#37A6DE" d="M-27.806,31.121l-1.694-1.714c-1.319,1.081-2.747,1.621-4.284,1.621c-1.421,0-2.595-0.384-3.52-1.153
					c-0.925-0.769-1.388-1.789-1.388-3.061v-0.041c0-1.816,0.945-3.156,2.835-4.02c-0.68-0.953-1.019-1.925-1.019-2.918v-0.041
					c0-0.503,0.1-0.986,0.301-1.449c0.2-0.463,0.485-0.872,0.851-1.23s0.835-0.642,1.403-0.851c0.568-0.211,1.192-0.317,1.872-0.317
					c1.225,0,2.214,0.35,2.974,1.051c0.758,0.701,1.137,1.575,1.137,2.622v0.041c0,1.748-1.024,3.023-3.071,3.827l1.949,1.949
					c0.463-0.728,0.935-1.564,1.418-2.51l2.366,1.295c-0.714,1.3-1.357,2.33-1.928,3.092l2.154,2.154L-27.806,31.121z
					 M-33.407,28.396c0.693,0,1.398-0.276,2.111-0.826l-2.805-2.846c-0.904,0.469-1.357,1.109-1.357,1.918v0.041
					c0,0.511,0.193,0.923,0.577,1.239C-34.497,28.238-34.005,28.396-33.407,28.396z M-33.071,21.796
					c0.667-0.252,1.157-0.527,1.47-0.826c0.312-0.299,0.469-0.671,0.469-1.111v-0.041c0-0.416-0.127-0.745-0.377-0.99
					c-0.252-0.245-0.585-0.367-1-0.367c-0.428,0-0.772,0.136-1.03,0.409c-0.258,0.273-0.388,0.629-0.388,1.071v0.041
					c0,0.313,0.065,0.606,0.194,0.877C-33.604,21.129-33.382,21.442-33.071,21.796z"/>
				<path fill="#37A6DE" d="M-31.737-5.428c-12.126,0-22.528,7.372-26.96,17.873h4.518c4.157-8.188,12.659-13.804,22.48-13.804
					c13.917,0,25.2,11.268,25.2,25.168c0,1.991-0.238,3.925-0.678,5.783h-3.24c0-0.001,0.001-0.001,0.001-0.003h-7.662
					c-0.061,0.003-0.12,0.006-0.182,0.006c-0.061,0-0.118-0.004-0.178-0.006h-0.063v-0.002c-0.947-0.037-1.808-0.292-2.584-0.771
					c-0.84-0.519-1.492-1.214-1.954-2.084c-0.463-0.87-0.693-1.82-0.693-2.851v-0.051c0-1.03,0.227-1.976,0.682-2.838
					c0.454-0.861,1.098-1.545,1.929-2.052c0.833-0.507,1.77-0.76,2.812-0.76c1.581,0,2.891,0.556,3.929,1.665
					c1.038,1.111,1.558,2.455,1.558,4.035v0.051c0,1.03-0.227,1.976-0.682,2.838c-0.347,0.658-0.807,1.212-1.377,1.665h5.212
					c0.16-0.29,0.311-0.588,0.445-0.901c0.497-1.171,0.746-2.403,0.746-3.699v-0.052c0-1.732-0.416-3.322-1.248-4.768
					c-0.833-1.446-2-2.593-3.5-3.442c-1.502-0.85-3.178-1.274-5.032-1.274c-1.39,0-2.698,0.251-3.924,0.752
					c-1.227,0.502-2.268,1.182-3.127,2.04c-0.858,0.858-1.534,1.872-2.027,3.043c-0.269,0.639-0.463,1.299-0.584,1.975l0.253,0.139
					l2.366,1.295l0.678,0.372l-0.372,0.678c-0.571,1.04-1.106,1.922-1.596,2.637l1.69,1.69l0.65,0.65l-0.752,0.527l-0.486,0.34
					c0.052,0.056,0.1,0.117,0.154,0.171c0.85,0.854,1.885,1.529,3.108,2.027c1.2,0.488,2.48,0.735,3.839,0.745v0.008h9.996
					c0,0.001-0.001,0.003-0.001,0.003h4.279c1.049-3.01,1.627-6.24,1.627-9.607C-2.49,7.65-15.585-5.428-31.737-5.428z"/>
				<g>
					<path fill="#37A6DE" d="M-9.195,35.133c-4.149,8.212-12.665,13.847-22.503,13.847c-13.917,0-25.2-11.268-25.2-25.168
						c0-2.009,0.242-3.961,0.689-5.832h3.194l0,0h6.785c0.001,0,0.003,0,0.003-0.001h0.519v-0.059
						c0.117-0.008,0.235-0.018,0.356-0.018c1.004,0,1.865,0.15,2.581,0.45c0.716,0.301,1.464,0.772,2.246,1.415l2.548-3.088
						c-1.02-0.858-2.084-1.493-3.191-1.905c-1.106-0.412-2.458-0.617-4.054-0.617c-0.231,0-0.46,0.01-0.687,0.024h-12.712
						l-0.003,0.003h-0.735c-1.048,3.008-1.625,6.237-1.625,9.603C-60.984,39.92-47.89,53-31.737,53
						c12.124,0,22.524-7.369,26.96-17.867H-9.195z"/>
					<path fill="#37A6DE" d="M-37.313,22.708v-0.405h-8.016v3.5h4.079v2.637c-1.038,0.738-2.311,1.106-3.822,1.106
						c-1.63,0-2.968-0.554-4.016-1.66c-1.047-1.106-1.57-2.505-1.57-4.195V23.64c0-1.578,0.518-2.93,1.551-4.054
						c0.152-0.165,0.31-0.314,0.471-0.455h-5.108c-0.149,0.277-0.29,0.562-0.416,0.859c-0.489,1.171-0.733,2.405-0.733,3.7v0.052
						c0,1.347,0.238,2.606,0.714,3.777c0.476,1.171,1.135,2.176,1.975,3.017c0.84,0.84,1.863,1.502,3.07,1.982
						c1.205,0.48,2.516,0.72,3.93,0.72c2.816,0,5.332-0.888,7.551-2.659c-0.048-0.037-0.1-0.072-0.149-0.111
						c-1.105-0.918-1.665-2.148-1.665-3.655v-0.041C-39.464,25.079-38.72,23.696-37.313,22.708z"/>
				</g>
			</g>
		</g>
		<g>
			<g>
				<path fill="#37A6DE" d="M11.37,25.375c0.277,0,0.443,0.166,0.443,0.444v21.287c0,0.277-0.166,0.443-0.443,0.443H8.488
					c-0.304,0-0.444-0.166-0.444-0.443V25.819c0-0.277,0.139-0.444,0.444-0.444C8.488,25.375,11.37,25.375,11.37,25.375z"/>
				<path fill="#37A6DE" d="M25.285,25.375c0.277,0,0.444,0.166,0.444,0.444v21.287c0,0.277-0.166,0.443-0.444,0.443h-2.744
					c-0.249,0-0.416-0.111-0.499-0.361l-4.24-11.836h-0.139v11.752c0,0.277-0.139,0.443-0.443,0.443h-2.882
					c-0.277,0-0.444-0.166-0.444-0.443V25.819c0-0.277,0.166-0.444,0.444-0.444h2.744c0.249,0,0.416,0.111,0.499,0.361l4.213,11.78
					h0.166V25.819c0-0.277,0.139-0.444,0.443-0.444C22.402,25.375,25.285,25.375,25.285,25.375z"/>
				<path fill="#37A6DE" d="M27.808,25.819c0-0.277,0.139-0.444,0.444-0.444h6.652c2.606,0,3.991,1.414,3.991,4.02v14.164
					c0,2.606-1.385,3.991-3.991,3.991h-6.652c-0.304,0-0.444-0.139-0.444-0.443V25.819z M34.129,43.89
					c0.72,0,1.109-0.361,1.109-1.109V30.17c0-0.748-0.388-1.136-1.109-1.136h-2.55V43.89C31.579,43.89,34.129,43.89,34.129,43.89z"
					/>
				<path fill="#37A6DE" d="M51.509,25.375c0.304,0,0.554,0.249,0.554,0.554v17.629c0,2.606-1.387,3.991-3.991,3.991h-3.104
					c-2.606,0-3.991-1.385-3.991-3.991V25.929c0-0.304,0.249-0.554,0.555-0.554h2.661c0.304,0,0.554,0.249,0.554,0.554v16.852
					c0,0.748,0.388,1.109,1.109,1.109h1.442c0.72,0,1.109-0.361,1.109-1.109V25.929c0-0.304,0.249-0.554,0.554-0.554H51.509z"/>
				<path fill="#37A6DE" d="M61.239,25.375c2.606,0,3.991,1.385,3.991,3.991v2.937c0,0.277-0.139,0.444-0.444,0.444h-2.882
					c-0.277,0-0.444-0.166-0.444-0.444v-2.162c0-0.72-0.361-1.109-1.109-1.109h-1.33c-0.693,0-1.109,0.388-1.109,1.109v3.826
					l6.597,2.162c0.471,0.193,0.72,0.499,0.72,1.025v6.404c0,2.606-1.387,3.991-3.991,3.991h-3.104
					c-2.578,0-3.991-1.385-3.991-3.991v-2.911c0-0.304,0.166-0.443,0.444-0.443h2.882c0.304,0,0.443,0.139,0.443,0.443v2.135
					c0,0.748,0.416,1.109,1.109,1.109h1.33c0.72,0,1.109-0.361,1.109-1.109v-3.687l-6.57-2.162
					c-0.499-0.166-0.748-0.499-0.748-1.025v-6.541c0-2.606,1.414-3.991,3.991-3.991L61.239,25.375L61.239,25.375L61.239,25.375z"/>
				<path fill="#37A6DE" d="M76.846,25.375c0.304,0,0.444,0.166,0.444,0.444v2.772c0,0.277-0.139,0.444-0.444,0.444H73.63v18.073
					c0,0.304-0.139,0.443-0.444,0.443h-2.882c-0.277,0-0.443-0.139-0.443-0.443V29.033h-3.216c-0.277,0-0.444-0.166-0.444-0.444
					v-2.771c0-0.277,0.166-0.444,0.444-0.444L76.846,25.375L76.846,25.375z"/>
				<path fill="#37A6DE" d="M90.208,36.129c0,1.856-0.693,3.077-2.023,3.659l1.913,7.263c0.084,0.333-0.084,0.499-0.388,0.499
					h-2.882c-0.277,0-0.416-0.139-0.471-0.388L84.5,40.122h-1.913v6.986c0,0.277-0.166,0.443-0.443,0.443h-2.882
					c-0.277,0-0.444-0.166-0.444-0.443V25.819c0-0.277,0.166-0.444,0.444-0.444h6.957c2.606,0,3.991,1.385,3.991,3.991v6.763
					C90.21,36.129,90.208,36.129,90.208,36.129z M85.329,36.462c0.72,0,1.109-0.388,1.109-1.109v-5.211
					c0-0.72-0.388-1.109-1.109-1.109h-2.744v7.428L85.329,36.462L85.329,36.462z"/>
				<path fill="#37A6DE" d="M95.614,25.375c0.277,0,0.443,0.166,0.443,0.444v21.287c0,0.277-0.166,0.443-0.443,0.443h-2.882
					c-0.304,0-0.444-0.166-0.444-0.443V25.819c0-0.277,0.139-0.444,0.444-0.444C92.731,25.375,95.614,25.375,95.614,25.375z"/>
				<path fill="#37A6DE" d="M108.558,47.55c-0.249,0-0.388-0.139-0.444-0.388l-0.775-4.047h-4.934l-0.748,4.047
					c-0.055,0.249-0.193,0.388-0.444,0.388h-2.966c-0.304,0-0.443-0.166-0.361-0.471l4.601-21.315
					c0.055-0.277,0.222-0.388,0.471-0.388h3.853c0.249,0,0.416,0.111,0.471,0.388l4.601,21.315c0.055,0.304-0.055,0.471-0.388,0.471
					H108.558z M104.871,30.225l-1.774,9.674h3.549L104.871,30.225z"/>
				<path fill="#37A6DE" d="M117.457,43.89h4.969c0.304,0,0.443,0.166,0.443,0.444v2.772c0,0.304-0.139,0.443-0.443,0.443h-8.296
					c-0.277,0-0.444-0.139-0.444-0.443V25.819c0-0.277,0.166-0.444,0.444-0.444h2.882c0.304,0,0.443,0.166,0.443,0.444v18.072
					L117.457,43.89L117.457,43.89z"/>
			</g>
			<g>
				<path fill="#37A6DE" d="M11.283,5.482H7.481V2.809h10.312v2.674h-3.834v15.369h-2.675L11.283,5.482L11.283,5.482z"/>
				<path fill="#37A6DE" d="M19.883,2.808h9.021v2.674h-6.347v5.026h5.831v2.674h-5.831v4.994h6.347v2.674h-9.021V2.808z"/>
				<path fill="#37A6DE" d="M41.468,15.954c0,2.835-2.32,5.156-5.156,5.156s-5.156-2.32-5.156-5.156V7.707
					c0-2.835,2.319-5.156,5.156-5.156c2.835,0,5.156,2.32,5.156,5.156v0.257h-2.674V7.707c0-1.385-1.095-2.48-2.48-2.48
					c-1.385,0-2.48,1.095-2.48,2.48v8.248c0,1.385,1.095,2.48,2.48,2.48c1.385,0,2.48-1.095,2.48-2.48v-0.258h2.674V15.954z"/>
				<path fill="#37A6DE" d="M44.044,7.706c0-2.835,2.32-5.156,5.156-5.156s5.156,2.32,5.156,5.156v13.146h-2.674V7.706
					c0-1.385-1.095-2.48-2.48-2.48c-1.385,0-2.48,1.095-2.48,2.48v13.146h-2.674V7.706H44.044z"/>
				<path fill="#37A6DE" d="M57.252,15.954V7.707c0-2.835,2.319-5.156,5.156-5.156c2.835,0,5.156,2.32,5.156,5.156v8.248
					c0,2.835-2.32,5.156-5.156,5.156C59.571,21.109,57.252,18.79,57.252,15.954z M64.888,15.954V7.707c0-1.385-1.095-2.48-2.48-2.48
					c-1.385,0-2.48,1.095-2.48,2.48v8.248c0,1.385,1.095,2.48,2.48,2.48C63.793,18.436,64.888,17.34,64.888,15.954z"/>
				<path fill="#37A6DE" d="M70.46,2.808h2.674v15.369h6.347v2.674H70.46V2.808z"/>
				<path fill="#37A6DE" d="M80.319,15.954V7.707c0-2.835,2.319-5.156,5.156-5.156c2.835,0,5.156,2.32,5.156,5.156v8.248
					c0,2.835-2.32,5.156-5.156,5.156C82.638,21.109,80.319,18.79,80.319,15.954z M87.955,15.954V7.707c0-1.385-1.095-2.48-2.48-2.48
					s-2.48,1.095-2.48,2.48v8.248c0,1.385,1.095,2.48,2.48,2.48S87.955,17.34,87.955,15.954z"/>
				<path fill="#37A6DE" d="M93.525,15.954V7.707c0-2.835,2.319-5.156,5.156-5.156c2.835,0,5.156,2.32,5.156,5.156v0.257h-2.674
					V7.707c0-1.385-1.095-2.48-2.48-2.48s-2.48,1.095-2.48,2.48v8.248c0,1.385,1.095,2.48,2.48,2.48s2.48-1.095,2.48-2.48v-2.771
					h-2.48v-2.674h5.156v5.445c0,2.835-2.32,5.156-5.156,5.156C95.846,21.109,93.525,18.79,93.525,15.954z"/>
				<path fill="#37A6DE" d="M108.194-1.512h2.675l-1.782,2.709h-2.674L108.194-1.512z M106.733,2.808h2.674v18.043h-2.674V2.808z"/>
				<path fill="#37A6DE" d="M112.306,7.706c0-2.835,2.32-5.156,5.156-5.156s5.156,2.32,5.156,5.156v13.146h-2.674v-7.668h-4.962
					v7.668h-2.674V7.706H112.306z M119.942,10.509V7.705c0-1.385-1.095-2.48-2.48-2.48s-2.48,1.095-2.48,2.48v2.804H119.942z"/>
			</g>
		</g>
	</g>
</g>
</svg>
