<?xml version="1.0" encoding="utf-8"?>
<!-- Generator: Adobe Illustrator 17.0.0, SVG Export Plug-In . SVG Version: 6.00 Build 0)  -->
<!DOCTYPE svg PUBLIC "-//W3C//DTD SVG 1.1//EN" "http://www.w3.org/Graphics/SVG/1.1/DTD/svg11.dtd">
<svg version="1.1" id="Capa_1" xmlns="http://www.w3.org/2000/svg" xmlns:xlink="http://www.w3.org/1999/xlink" x="0px" y="0px"
	 width="178px" height="54px" viewBox="0 0 178 54" enable-background="new 0 0 178 54" xml:space="preserve">
<g>
	<g>
		<g>
			<g>
				<path fill="#FFFFFF" d="M31.954,33.783l-1.566-1.584c-1.22,0.999-2.54,1.499-3.96,1.499c-1.314,0-2.399-0.355-3.253-1.066
					c-0.855-0.711-1.282-1.653-1.282-2.829v-0.038c0-1.679,0.874-2.917,2.621-3.716c-0.629-0.88-0.943-1.779-0.943-2.697v-0.038
					c0-0.465,0.092-0.911,0.278-1.339c0.185-0.427,0.448-0.806,0.787-1.136c0.34-0.33,0.772-0.593,1.297-0.787
					c0.525-0.195,1.102-0.293,1.731-0.293c1.132,0,2.048,0.324,2.749,0.971c0.701,0.648,1.051,1.456,1.051,2.424v0.038
					c0,1.616-0.946,2.795-2.839,3.537l1.802,1.801c0.427-0.673,0.864-1.446,1.311-2.32l2.188,1.198
					c-0.66,1.201-1.254,2.153-1.782,2.857l1.99,1.99L31.954,33.783z M26.777,31.265c0.641,0,1.292-0.255,1.952-0.764l-2.593-2.631
					c-0.836,0.434-1.254,1.025-1.254,1.773v0.038c0,0.472,0.178,0.853,0.533,1.146C25.769,31.119,26.223,31.265,26.777,31.265z
					 M27.088,25.164c0.616-0.233,1.069-0.487,1.358-0.764s0.434-0.619,0.434-1.028v-0.038c0-0.384-0.117-0.688-0.349-0.915
					c-0.233-0.227-0.541-0.34-0.924-0.34c-0.396,0-0.714,0.126-0.953,0.377c-0.239,0.251-0.358,0.582-0.358,0.99v0.038
					c0,0.289,0.06,0.56,0.18,0.811C26.594,24.548,26.799,24.837,27.088,25.164z"/>
				<path fill="#FFFFFF" d="M28.32,0C17.111,0,7.497,6.814,3.399,16.52h4.177c3.843-7.568,11.702-12.758,20.78-12.758
					c12.864,0,23.292,10.416,23.292,23.264c0,1.841-0.221,3.628-0.626,5.345h-2.995c0,0,0.001-0.001,0.001-0.002h-7.083
					c-0.056,0.002-0.111,0.005-0.168,0.005c-0.056,0-0.11-0.004-0.165-0.005h-0.058v-0.002c-0.875-0.035-1.672-0.271-2.388-0.713
					c-0.777-0.48-1.379-1.122-1.807-1.926c-0.427-0.804-0.641-1.682-0.641-2.635v-0.047c0-0.953,0.21-1.827,0.63-2.623
					c0.42-0.796,1.014-1.429,1.783-1.897c0.769-0.468,1.636-0.703,2.599-0.703c1.461,0,2.671,0.514,3.631,1.54
					c0.96,1.027,1.44,2.27,1.44,3.73v0.047c0,0.952-0.21,1.827-0.629,2.623c-0.32,0.608-0.746,1.121-1.273,1.54h4.818
					c0.149-0.268,0.288-0.543,0.411-0.833c0.46-1.082,0.69-2.222,0.69-3.419v-0.048c0-1.602-0.385-3.07-1.154-4.407
					c-0.769-1.336-1.848-2.397-3.235-3.182c-1.388-0.785-2.938-1.178-4.651-1.178c-1.285,0-2.494,0.232-3.628,0.696
					c-1.134,0.464-2.097,1.092-2.891,1.885c-0.793,0.793-1.417,1.731-1.873,2.813c-0.249,0.591-0.427,1.2-0.54,1.825l0.234,0.128
					l2.188,1.198l0.627,0.343l-0.344,0.626c-0.528,0.961-1.022,1.777-1.475,2.437l1.562,1.562l0.601,0.601l-0.696,0.488
					l-0.449,0.315c0.049,0.052,0.092,0.108,0.142,0.158c0.785,0.789,1.743,1.414,2.873,1.873c1.108,0.451,2.292,0.68,3.549,0.688
					v0.007h9.239c0,0.001-0.001,0.002-0.001,0.002h3.956c0.97-2.782,1.503-5.768,1.503-8.88C55.354,12.09,43.25,0,28.32,0z"/>
				<g>
					<path fill="#FFFFFF" d="M49.156,37.492c-3.836,7.59-11.707,12.799-20.801,12.799c-12.864,0-23.292-10.416-23.292-23.264
						c0-1.857,0.224-3.66,0.637-5.391h2.952l0,0h6.271c0.001,0,0.002,0,0.003-0.001h0.479V21.58
						c0.109-0.007,0.217-0.016,0.329-0.016c0.928,0,1.723,0.139,2.385,0.416c0.662,0.278,1.354,0.714,2.075,1.308l2.355-2.854
						c-0.944-0.793-1.927-1.38-2.95-1.76c-1.023-0.381-2.272-0.571-3.747-0.571c-0.214,0-0.425,0.009-0.635,0.023H3.469
						l-0.002,0.003h-0.68c-0.969,2.781-1.502,5.765-1.502,8.876c0,14.914,12.104,27.004,27.034,27.004
						c11.207,0,20.82-6.811,24.919-16.515h-4.082V37.492z"/>
					<path fill="#FFFFFF" d="M23.167,26.007v-0.375h-7.41v3.235h3.77v2.438c-0.959,0.682-2.137,1.023-3.532,1.023
						c-1.507,0-2.744-0.511-3.711-1.534s-1.451-2.315-1.451-3.877v-0.048c0-1.459,0.478-2.708,1.434-3.747
						c0.14-0.153,0.287-0.29,0.436-0.42H7.981c-0.138,0.256-0.268,0.519-0.383,0.794c-0.452,1.082-0.678,2.222-0.678,3.42v0.048
						c0,1.245,0.22,2.408,0.66,3.491c0.44,1.082,1.049,2.012,1.826,2.789s1.722,1.388,2.837,1.832
						c1.114,0.444,2.325,0.666,3.633,0.666c2.603,0,4.929-0.82,6.979-2.457c-0.045-0.035-0.093-0.066-0.137-0.103
						c-1.022-0.849-1.54-1.986-1.54-3.378v-0.038C21.179,28.2,21.866,26.921,23.167,26.007z"/>
				</g>
			</g>
		</g>
		<g>
			<g>
				<path fill="#FFFFFF" d="M68.165,28.472c0.256,0,0.41,0.154,0.41,0.41v19.677c0,0.256-0.154,0.41-0.41,0.41H65.5
					c-0.282,0-0.41-0.154-0.41-0.41V28.883c0-0.256,0.128-0.41,0.41-0.41L68.165,28.472L68.165,28.472z"/>
				<path fill="#FFFFFF" d="M81.027,28.472c0.256,0,0.41,0.154,0.41,0.41v19.677c0,0.256-0.154,0.41-0.41,0.41h-2.536
					c-0.231,0-0.384-0.103-0.461-0.333l-3.92-10.94h-0.128v10.863c0,0.256-0.128,0.41-0.41,0.41h-2.665
					c-0.256,0-0.41-0.154-0.41-0.41V28.883c0-0.256,0.154-0.41,0.41-0.41h2.536c0.231,0,0.384,0.103,0.461,0.333l3.894,10.889h0.154
					V28.883c0-0.256,0.128-0.41,0.41-0.41L81.027,28.472L81.027,28.472z"/>
				<path fill="#FFFFFF" d="M83.36,28.883c0-0.256,0.128-0.41,0.41-0.41h6.149c2.409,0,3.69,1.307,3.69,3.715V45.28
					c0,2.408-1.281,3.689-3.69,3.689H83.77c-0.282,0-0.41-0.128-0.41-0.41C83.36,48.559,83.36,28.883,83.36,28.883z M89.201,45.587
					c0.666,0,1.025-0.333,1.025-1.025V32.905c0-0.692-0.359-1.05-1.025-1.05h-2.357v13.733L89.201,45.587L89.201,45.587z"/>
				<path fill="#FFFFFF" d="M105.267,28.472c0.282,0,0.512,0.23,0.512,0.512V45.28c0,2.408-1.281,3.689-3.69,3.689H99.22
					c-2.408,0-3.69-1.281-3.69-3.689V28.985c0-0.282,0.231-0.512,0.513-0.512h2.46c0.282,0,0.512,0.23,0.512,0.512v15.578
					c0,0.692,0.359,1.025,1.025,1.025h1.332c0.666,0,1.025-0.333,1.025-1.025V28.985c0-0.282,0.23-0.512,0.512-0.512h2.358
					C105.267,28.473,105.267,28.472,105.267,28.472z"/>
				<path fill="#FFFFFF" d="M114.261,28.472c2.408,0,3.69,1.281,3.69,3.69v2.716c0,0.256-0.128,0.41-0.41,0.41h-2.664
					c-0.256,0-0.41-0.154-0.41-0.41V32.88c0-0.666-0.333-1.025-1.025-1.025h-1.23c-0.641,0-1.025,0.358-1.025,1.025v3.535
					l6.098,1.999c0.436,0.179,0.666,0.461,0.666,0.948v5.919c0,2.408-1.281,3.689-3.69,3.689h-2.869c-2.383,0-3.69-1.281-3.69-3.689
					V42.59c0-0.282,0.154-0.41,0.41-0.41h2.665c0.282,0,0.41,0.128,0.41,0.41v1.973c0,0.692,0.384,1.025,1.025,1.025h1.23
					c0.666,0,1.025-0.333,1.025-1.025v-3.407l-6.072-1.999c-0.461-0.153-0.692-0.461-0.692-0.948v-6.046
					c0-2.409,1.307-3.69,3.69-3.69L114.261,28.472L114.261,28.472z"/>
				<path fill="#FFFFFF" d="M128.687,28.472c0.282,0,0.41,0.154,0.41,0.41v2.562c0,0.256-0.128,0.41-0.41,0.41h-2.972v16.705
					c0,0.282-0.128,0.41-0.41,0.41h-2.665c-0.256,0-0.41-0.128-0.41-0.41V31.854h-2.972c-0.256,0-0.41-0.154-0.41-0.41v-2.562
					c0-0.256,0.154-0.41,0.41-0.41H128.687z"/>
				<path fill="#FFFFFF" d="M141.037,38.413c0,1.716-0.641,2.844-1.87,3.382l1.768,6.713c0.077,0.307-0.077,0.461-0.358,0.461
					h-2.665c-0.256,0-0.384-0.128-0.436-0.359l-1.716-6.508h-1.768v6.457c0,0.256-0.154,0.41-0.41,0.41h-2.665
					c-0.256,0-0.41-0.154-0.41-0.41V28.883c0-0.256,0.154-0.41,0.41-0.41h6.431c2.408,0,3.689,1.281,3.689,3.69V38.413z
					 M136.528,38.721c0.666,0,1.025-0.359,1.025-1.025v-4.817c0-0.666-0.358-1.025-1.025-1.025h-2.537v6.867
					C133.991,38.721,136.528,38.721,136.528,38.721z"/>
				<path fill="#FFFFFF" d="M146.034,28.472c0.256,0,0.41,0.154,0.41,0.41v19.677c0,0.256-0.154,0.41-0.41,0.41h-2.665
					c-0.282,0-0.41-0.154-0.41-0.41V28.883c0-0.256,0.128-0.41,0.41-0.41L146.034,28.472L146.034,28.472z"/>
				<path fill="#FFFFFF" d="M158,48.969c-0.231,0-0.359-0.128-0.41-0.359l-0.717-3.74h-4.56l-0.692,3.74
					c-0.051,0.231-0.179,0.359-0.41,0.359h-2.741c-0.282,0-0.41-0.154-0.333-0.436l4.253-19.702
					c0.051-0.256,0.205-0.359,0.436-0.359h3.561c0.23,0,0.384,0.103,0.436,0.359l4.253,19.702c0.051,0.282-0.051,0.436-0.359,0.436
					H158z M154.592,32.956l-1.64,8.942h3.279L154.592,32.956z"/>
				<path fill="#FFFFFF" d="M166.225,45.587h4.593c0.282,0,0.41,0.154,0.41,0.41v2.562c0,0.282-0.128,0.41-0.41,0.41h-7.667
					c-0.256,0-0.41-0.128-0.41-0.41V28.883c0-0.256,0.154-0.41,0.41-0.41h2.665c0.282,0,0.41,0.154,0.41,0.41L166.225,45.587
					L166.225,45.587z"/>
			</g>
			<g>
				<path fill="#FFFFFF" d="M68.084,10.085H64.57V7.614h9.53v2.472h-3.544v14.206h-2.472V10.085z"/>
				<path fill="#FFFFFF" d="M76.034,7.614h8.339v2.472h-5.867v4.646h5.39v2.472h-5.39v4.616h5.867v2.472h-8.339V7.614z"/>
				<path fill="#FFFFFF" d="M95.987,19.765c0,2.621-2.144,4.765-4.765,4.765s-4.765-2.144-4.765-4.765V12.14
					c0-2.621,2.144-4.765,4.765-4.765s4.765,2.144,4.765,4.765v0.238h-2.472V12.14c0-1.281-1.013-2.293-2.293-2.293
					c-1.281,0-2.293,1.012-2.293,2.293v7.624c0,1.28,1.012,2.293,2.293,2.293c1.28,0,2.293-1.013,2.293-2.293v-0.238h2.472V19.765z"
					/>
				<path fill="#FFFFFF" d="M98.367,12.14c0-2.621,2.144-4.765,4.765-4.765s4.765,2.144,4.765,4.765v12.151h-2.472V12.14
					c0-1.281-1.013-2.293-2.293-2.293c-1.281,0-2.293,1.012-2.293,2.293v12.151h-2.472V12.14z"/>
				<path fill="#FFFFFF" d="M110.576,19.765V12.14c0-2.621,2.144-4.765,4.765-4.765s4.765,2.144,4.765,4.765v7.624
					c0,2.621-2.144,4.765-4.765,4.765C112.72,24.53,110.576,22.386,110.576,19.765z M117.634,19.765V12.14
					c0-1.281-1.013-2.293-2.293-2.293c-1.281,0-2.293,1.012-2.293,2.293v7.624c0,1.28,1.012,2.293,2.293,2.293
					C116.622,22.058,117.634,21.045,117.634,19.765z"/>
				<path fill="#FFFFFF" d="M122.784,7.614h2.472V21.82h5.867v2.472h-8.339C122.784,24.292,122.784,7.614,122.784,7.614z"/>
				<path fill="#FFFFFF" d="M131.896,19.765V12.14c0-2.621,2.144-4.765,4.765-4.765s4.765,2.144,4.765,4.765v7.624
					c0,2.621-2.144,4.765-4.765,4.765C134.04,24.53,131.896,22.386,131.896,19.765z M138.955,19.765V12.14
					c0-1.281-1.013-2.293-2.293-2.293c-1.281,0-2.293,1.012-2.293,2.293v7.624c0,1.28,1.012,2.293,2.293,2.293
					C137.942,22.058,138.955,21.045,138.955,19.765z"/>
				<path fill="#FFFFFF" d="M144.105,19.765V12.14c0-2.621,2.144-4.765,4.765-4.765s4.765,2.144,4.765,4.765v0.238h-2.472V12.14
					c0-1.281-1.013-2.293-2.293-2.293c-1.281,0-2.293,1.012-2.293,2.293v7.624c0,1.28,1.012,2.293,2.293,2.293
					c1.28,0,2.293-1.013,2.293-2.293v-2.561h-2.293v-2.472h4.765v5.033c0,2.621-2.144,4.765-4.765,4.765
					C146.249,24.53,144.105,22.386,144.105,19.765z"/>
				<path fill="#FFFFFF" d="M157.662,3.62h2.472l-1.647,2.504h-2.472L157.662,3.62z M156.314,7.614h2.472v16.678h-2.472V7.614z"/>
				<path fill="#FFFFFF" d="M161.465,12.14c0-2.621,2.145-4.765,4.765-4.765c2.621,0,4.765,2.144,4.765,4.765v12.151h-2.472v-7.088
					h-4.587v7.088h-2.472V12.14H161.465z M168.523,14.732V12.14c0-1.281-1.013-2.293-2.293-2.293c-1.281,0-2.293,1.012-2.293,2.293
					v2.591L168.523,14.732L168.523,14.732z"/>
			</g>
		</g>
	</g>
</g>
</svg>
